<svg width="60.6232" height="65.201" viewBox="0 0 60.6232 65.201" fill="none" xmlns="http://www.w3.org/2000/svg">
<g>
<path d="M18.3193 9.16001L22.4322 21.8183H35.7419L24.9741 29.6415L29.0871 42.2997L18.3193 34.4765L7.55154 42.2997L11.6645 29.6415L0.896707 21.8183H14.2064L18.3193 9.16001Z" fill="#FFC002"/>
<path d="M46.8629 5.10375L44.3687 9.42695L47.7095 13.1351L42.8271 12.0988L40.3329 16.422L39.8097 11.4584L34.9273 10.4222L39.4863 8.39071L38.9631 3.42708L42.3039 7.1352L46.8629 5.10375Z" fill="#FFC002"/>
<path d="M56.0239 18.8438L53.5296 23.167L56.8705 26.8751L51.9881 25.8388L49.4938 30.162L48.9706 25.1984L44.0883 24.1622L48.6473 22.1307L48.1241 17.1671L51.4649 20.8752L56.0239 18.8438Z" fill="#FFC002"/>
<path d="M56.0251 37.1625L53.5308 41.4857L56.8716 45.1938L51.9893 44.1576L49.495 48.4808L48.9718 43.5171L44.0894 42.4809L48.6484 40.4494L48.1252 35.4858L51.466 39.1939L56.0251 37.1625Z" fill="#FFC002"/>
<path d="M42.284 50.9007L39.7897 55.2239L43.1305 58.932L38.2482 57.8958L35.7539 62.219L35.2307 57.2553L30.3483 56.2191L34.9073 54.1876L34.3841 49.224L37.7249 52.9321L42.284 50.9007Z" fill="#FFC002"/>
</g>
</svg>
